HIERARCHY
ROOT newVegas:Hips
{
	OFFSET 0.000000 96.479958 0.000000
	CHANNELS 6 Xposition Yposition Zposition Xrotation Yrotation Zrotation
	JOINT newVegas:Pelvis
	{
		OFFSET 0.000000 0.000000 0.000000
		CHANNELS 3 Xrotation Yrotation Zrotation
		JOINT newVegas:LeftUpLeg
		{
			OFFSET 18.735201 -5.666702 -4.541200
			CHANNELS 3 Xrotation Yrotation Zrotation
			JOINT newVegas:LeftLeg
			{
				OFFSET -0.021200 -31.938179 0.493100
				CHANNELS 3 Xrotation Yrotation Zrotation
				JOINT newVegas:LeftFoot
				{
					OFFSET 0.021200 -31.938179 -4.336299
					CHANNELS 3 Xrotation Yrotation Zrotation
					JOINT newVegas:LeftToeBase
					{
						OFFSET 0.943001 -26.722000 15.023500
						CHANNELS 3 Xrotation Yrotation Zrotation
						End Site
						{
							OFFSET 0.000000 30.670183 0.000000
						}
					}
				}
				JOINT newVegas:Left_PantLeg
				{
					OFFSET 0.663870 -9.044666 -1.108900
					CHANNELS 3 Xrotation Yrotation Zrotation
					End Site
					{
						OFFSET 1.415995 20.635357 0.000000
					}
				}
			}
		}
		JOINT newVegas:RightUpLeg
		{
			OFFSET -18.735201 -5.666702 -4.541200
			CHANNELS 3 Xrotation Yrotation Zrotation
			JOINT newVegas:RightLeg
			{
				OFFSET 0.018946 -31.938133 0.493100
				CHANNELS 3 Xrotation Yrotation Zrotation
				JOINT newVegas:RightFoot
				{
					OFFSET -0.018946 -31.938126 -4.336299
					CHANNELS 3 Xrotation Yrotation Zrotation
					JOINT newVegas:RightToeBase
					{
						OFFSET -0.943001 -26.722004 15.023500
						CHANNELS 3 Xrotation Yrotation Zrotation
						End Site
						{
							OFFSET 0.000000 30.670187 0.000000
						}
					}
				}
				JOINT newVegas:Right_PantLeg
				{
					OFFSET -0.661674 -9.044716 -1.108900
					CHANNELS 3 Xrotation Yrotation Zrotation
					End Site
					{
						OFFSET -1.415958 20.635269 0.000000
					}
				}
			}
		}
	}
	JOINT newVegas:Spine
	{
		OFFSET 0.000000 10.199997 -0.299500
		CHANNELS 3 Xrotation Yrotation Zrotation
		JOINT newVegas:Spine1
		{
			OFFSET 0.000000 11.900002 -1.516600
			CHANNELS 3 Xrotation Yrotation Zrotation
			JOINT newVegas:Spine2
			{
				OFFSET 0.000000 13.600006 -2.842500
				CHANNELS 3 Xrotation Yrotation Zrotation
				JOINT newVegas:Neck
				{
					OFFSET 0.000000 9.624100 -2.890100
					CHANNELS 3 Xrotation Yrotation Zrotation
					JOINT newVegas:Head
					{
						OFFSET 0.000000 14.068802 -1.351900
						CHANNELS 3 Xrotation Yrotation Zrotation
						JOINT newVegas:Hair_Back
						{
							OFFSET 0.000000 3.231903 -17.524799
							CHANNELS 3 Xrotation Yrotation Zrotation
							End Site
							{
								OFFSET 0.000000 19.849884 0.000000
							}
						}
						JOINT newVegas:Hair_Front
						{
							OFFSET 0.000000 31.260406 4.573800
							CHANNELS 3 Xrotation Yrotation Zrotation
							JOINT newVegas:Hair_Front1
							{
								OFFSET 0.000000 2.284103 11.993300
								CHANNELS 3 Xrotation Yrotation Zrotation
								JOINT newVegas:Hair_Front2
								{
									OFFSET 0.000000 2.284103 11.993300
									CHANNELS 3 Xrotation Yrotation Zrotation
									End Site
									{
										OFFSET 0.000000 12.208862 0.000000
									}
								}
							}
						}
						JOINT newVegas:Jowel
						{
							OFFSET 0.000000 -7.458206 6.864100
							CHANNELS 3 Xrotation Yrotation Zrotation
							End Site
							{
								OFFSET 0.000000 19.849884 0.000000
							}
						}
					}
				}
				JOINT newVegas:LeftShoulder
				{
					OFFSET 15.263000 10.923401 -0.547700
					CHANNELS 3 Xrotation Yrotation Zrotation
					JOINT newVegas:LeftArm
					{
						OFFSET 25.438599 -2.830597 -13.032500
						CHANNELS 3 Xrotation Yrotation Zrotation
						JOINT newVegas:LeftForeArm
						{
							OFFSET 29.960503 0.000000 0.000000
							CHANNELS 3 Xrotation Yrotation Zrotation
							JOINT newVegas:LeftHand
							{
								OFFSET 27.849251 0.000000 0.000000
								CHANNELS 3 Xrotation Yrotation Zrotation
								JOINT newVegas:LeftHandThumb1
								{
									OFFSET 4.487587 -3.305161 6.305391
									CHANNELS 3 Xrotation Yrotation Zrotation
									JOINT newVegas:LeftHandThumb2
									{
										OFFSET 5.480453 -3.164139 3.164143
										CHANNELS 3 Xrotation Yrotation Zrotation
										JOINT newVegas:LeftHandThumb3
										{
											OFFSET 5.159721 -2.978973 2.978967
											CHANNELS 3 Xrotation Yrotation Zrotation
											End Site
											{
												OFFSET 2.494507 5.926697 1.738678
											}
										}
									}
								}
								JOINT newVegas:LeftHandIndex1
								{
									OFFSET 18.578728 -0.527832 5.208049
									CHANNELS 3 Xrotation Yrotation Zrotation
									JOINT newVegas:LeftHandIndex2
									{
										OFFSET 3.192009 0.000000 0.000000
										CHANNELS 3 Xrotation Yrotation Zrotation
										JOINT newVegas:LeftHandIndex3
										{
											OFFSET 3.835129 0.000000 0.000000
											CHANNELS 3 Xrotation Yrotation Zrotation
											End Site
											{
												OFFSET -0.034599 3.816971 0.371180
											}
										}
									}
								}
								JOINT newVegas:LeftHandMiddle1
								{
									OFFSET 18.476105 0.000000 0.000000
									CHANNELS 3 Xrotation Yrotation Zrotation
									JOINT newVegas:LeftHandMiddle2
									{
										OFFSET 3.324875 0.000000 0.000000
										CHANNELS 3 Xrotation Yrotation Zrotation
										JOINT newVegas:LeftHandMiddle3
										{
											OFFSET 4.596550 0.000000 0.000000
											CHANNELS 3 Xrotation Yrotation Zrotation
											End Site
											{
												OFFSET 0.057701 4.578827 0.399218
											}
										}
									}
								}
								JOINT newVegas:LeftHandRing1
								{
									OFFSET 17.732719 0.121887 -4.201567
									CHANNELS 3 Xrotation Yrotation Zrotation
									JOINT newVegas:LeftHandRing2
									{
										OFFSET 2.733170 0.000000 0.000000
										CHANNELS 3 Xrotation Yrotation Zrotation
										JOINT newVegas:LeftHandRing3
										{
											OFFSET 3.178268 0.000000 0.000000
											CHANNELS 3 Xrotation Yrotation Zrotation
											End Site
											{
												OFFSET 0.119102 3.170624 0.185394
											}
										}
									}
								}
								JOINT newVegas:LeftHandPinky1
								{
									OFFSET 15.989624 -0.606689 -7.535461
									CHANNELS 3 Xrotation Yrotation Zrotation
									JOINT newVegas:LeftHandPinky2
									{
										OFFSET 2.538986 0.000000 0.000000
										CHANNELS 3 Xrotation Yrotation Zrotation
										JOINT newVegas:LeftHandPinky3
										{
											OFFSET 2.593102 0.000000 0.000000
											CHANNELS 3 Xrotation Yrotation Zrotation
											End Site
											{
												OFFSET -0.150902 2.584198 0.152708
											}
										}
									}
								}
							}
							JOINT newVegas:Left_Sleeve
							{
								OFFSET 0.267448 -0.649796 0.577675
								CHANNELS 3 Xrotation Yrotation Zrotation
								End Site
								{
									OFFSET 0.000000 15.991241 0.000000
								}
							}
							JOINT newVegas:Left_CapeC
							{
								OFFSET 15.715958 -8.608795 -6.935905
								CHANNELS 3 Xrotation Yrotation Zrotation
								JOINT newVegas:Left_CapeC1
								{
									OFFSET 0.000000 -8.688499 0.000000
									CHANNELS 3 Xrotation Yrotation Zrotation
									End Site
									{
										OFFSET 0.000000 8.688499 0.000000
									}
								}
							}
						}
						JOINT newVegas:Left_CapeB
						{
							OFFSET 26.118385 -8.608795 -7.079235
							CHANNELS 3 Xrotation Yrotation Zrotation
							JOINT newVegas:Left_CapeB1
							{
								OFFSET 0.000000 -8.688499 0.000000
								CHANNELS 3 Xrotation Yrotation Zrotation
								End Site
								{
									OFFSET 0.000000 8.688499 0.000000
								}
							}
						}
						JOINT newVegas:Left_CapeA
						{
							OFFSET 5.115639 -8.608795 -10.395809
							CHANNELS 3 Xrotation Yrotation Zrotation
							JOINT newVegas:Left_CapeA1
							{
								OFFSET 0.000000 -8.688499 0.000000
								CHANNELS 3 Xrotation Yrotation Zrotation
								End Site
								{
									OFFSET 0.000000 8.688499 0.000000
								}
							}
						}
					}
				}
				JOINT newVegas:RightShoulder
				{
					OFFSET -15.263000 10.923401 -0.547700
					CHANNELS 3 Xrotation Yrotation Zrotation
					JOINT newVegas:RightArm
					{
						OFFSET -25.438599 -2.830597 -13.032500
						CHANNELS 3 Xrotation Yrotation Zrotation
						JOINT newVegas:RightForeArm
						{
							OFFSET -29.960503 0.000000 0.000000
							CHANNELS 3 Xrotation Yrotation Zrotation
							JOINT newVegas:RightHand
							{
								OFFSET -27.849251 0.000000 0.000000
								CHANNELS 3 Xrotation Yrotation Zrotation
								JOINT newVegas:RightHandThumb1
								{
									OFFSET -4.487587 -3.305161 6.305391
									CHANNELS 3 Xrotation Yrotation Zrotation
									JOINT newVegas:RightHandThumb2
									{
										OFFSET -5.480453 -3.164139 3.164143
										CHANNELS 3 Xrotation Yrotation Zrotation
										JOINT newVegas:RightHandThumb3
										{
											OFFSET -5.159721 -2.978973 2.978967
											CHANNELS 3 Xrotation Yrotation Zrotation
											End Site
											{
												OFFSET -2.494507 5.926697 1.738678
											}
										}
									}
								}
								JOINT newVegas:RightHandIndex1
								{
									OFFSET -18.578728 -0.527832 5.208049
									CHANNELS 3 Xrotation Yrotation Zrotation
									JOINT newVegas:RightHandIndex2
									{
										OFFSET -3.192009 0.000000 0.000000
										CHANNELS 3 Xrotation Yrotation Zrotation
										JOINT newVegas:RightHandIndex3
										{
											OFFSET -3.835129 0.000000 0.000000
											CHANNELS 3 Xrotation Yrotation Zrotation
											End Site
											{
												OFFSET 0.034599 3.816971 0.371180
											}
										}
									}
								}
								JOINT newVegas:RightHandMiddle1
								{
									OFFSET -18.476105 0.000000 0.000000
									CHANNELS 3 Xrotation Yrotation Zrotation
									JOINT newVegas:RightHandMiddle2
									{
										OFFSET -3.324875 0.000000 0.000000
										CHANNELS 3 Xrotation Yrotation Zrotation
										JOINT newVegas:RightHandMiddle3
										{
											OFFSET -4.596550 0.000000 0.000000
											CHANNELS 3 Xrotation Yrotation Zrotation
											End Site
											{
												OFFSET -0.057701 4.578827 0.399218
											}
										}
									}
								}
								JOINT newVegas:RightHandRing1
								{
									OFFSET -17.732719 0.121887 -4.201567
									CHANNELS 3 Xrotation Yrotation Zrotation
									JOINT newVegas:RightHandRing2
									{
										OFFSET -2.733170 0.000000 0.000000
										CHANNELS 3 Xrotation Yrotation Zrotation
										JOINT newVegas:RightHandRing3
										{
											OFFSET -3.178268 0.000000 0.000000
											CHANNELS 3 Xrotation Yrotation Zrotation
											End Site
											{
												OFFSET -0.119102 3.170624 0.185394
											}
										}
									}
								}
								JOINT newVegas:RightHandPinky1
								{
									OFFSET -15.989624 -0.606689 -7.535461
									CHANNELS 3 Xrotation Yrotation Zrotation
									JOINT newVegas:RightHandPinky2
									{
										OFFSET -2.538986 0.000000 0.000000
										CHANNELS 3 Xrotation Yrotation Zrotation
										JOINT newVegas:RightHandPinky3
										{
											OFFSET -2.593102 0.000000 0.000000
											CHANNELS 3 Xrotation Yrotation Zrotation
											End Site
											{
												OFFSET 0.150902 2.584198 0.152708
											}
										}
									}
								}
							}
							JOINT newVegas:Right_CapeC
							{
								OFFSET -15.715958 -8.608795 -6.935905
								CHANNELS 3 Xrotation Yrotation Zrotation
								JOINT newVegas:Right_CapeC1
								{
									OFFSET 0.000000 -8.688499 0.000000
									CHANNELS 3 Xrotation Yrotation Zrotation
									End Site
									{
										OFFSET 0.000000 8.688499 0.000000
									}
								}
							}
							JOINT newVegas:Right_Sleeve
							{
								OFFSET -0.267448 -0.649994 0.577675
								CHANNELS 3 Xrotation Yrotation Zrotation
								End Site
								{
									OFFSET 0.000000 15.991302 0.000000
								}
							}
						}
						JOINT newVegas:Right_CapeA
						{
							OFFSET -5.115540 -8.608795 -10.395824
							CHANNELS 3 Xrotation Yrotation Zrotation
							JOINT newVegas:Right_CapeA1
							{
								OFFSET 0.000000 -8.688499 0.000000
								CHANNELS 3 Xrotation Yrotation Zrotation
								End Site
								{
									OFFSET 0.000000 8.688499 0.000000
								}
							}
						}
						JOINT newVegas:Right_CapeB
						{
							OFFSET -26.118187 -8.608795 -7.079266
							CHANNELS 3 Xrotation Yrotation Zrotation
							JOINT newVegas:Right_CapeB1
							{
								OFFSET 0.000000 -8.688499 0.000000
								CHANNELS 3 Xrotation Yrotation Zrotation
								End Site
								{
									OFFSET 0.000000 8.688499 0.000000
								}
							}
						}
					}
				}
				JOINT newVegas:Left_Collar
				{
					OFFSET 18.625099 8.655502 8.828100
					CHANNELS 3 Xrotation Yrotation Zrotation
					JOINT newVegas:Left_Collar1
					{
						OFFSET 14.783401 10.540405 -1.259500
						CHANNELS 3 Xrotation Yrotation Zrotation
						End Site
						{
							OFFSET 0.000000 18.199875 0.000000
						}
					}
				}
				JOINT newVegas:Collar_Back
				{
					OFFSET 0.000000 15.630707 -20.132601
					CHANNELS 3 Xrotation Yrotation Zrotation
					End Site
					{
						OFFSET 0.000000 22.523010 0.000000
					}
				}
				JOINT newVegas:Left_Peck
				{
					OFFSET 17.239599 -5.132599 25.482599
					CHANNELS 3 Xrotation Yrotation Zrotation
					End Site
					{
						OFFSET 0.000000 22.523010 0.000000
					}
				}
				JOINT newVegas:Right_Peck
				{
					OFFSET -17.239599 -5.132202 25.482599
					CHANNELS 3 Xrotation Yrotation Zrotation
					End Site
					{
						OFFSET 0.000000 22.523010 0.000000
					}
				}
				JOINT newVegas:Right_Collar
				{
					OFFSET -18.625099 8.655792 8.828100
					CHANNELS 3 Xrotation Yrotation Zrotation
					JOINT newVegas:Right_Collar1
					{
						OFFSET -14.783401 10.539993 -1.259500
						CHANNELS 3 Xrotation Yrotation Zrotation
						End Site
						{
							OFFSET 0.000000 18.199631 0.000000
						}
					}
				}
			}
		}
		JOINT newVegas:Belly
		{
			OFFSET 0.000000 -6.540398 9.014299
			CHANNELS 3 Xrotation Yrotation Zrotation
			End Site
			{
				OFFSET 0.000000 11.566666 0.000000
			}
		}
	}
	JOINT newVegas:ElvisFacialAnim_Joint
	{
		OFFSET 1.000000 -95.330101 -8.825800
		CHANNELS 3 Xrotation Yrotation Zrotation
		End Site
		{
			OFFSET 0.000000 35.315800 0.000000
		}
	}
}
MOTION
Frames: 4
Frame Time: 0.033333
-53.018204 80.785233 -86.884445 -36.329438 96.639158 45.126414 0.000000 0.000000 0.000000 -60.311247 0.707390 -9.421430 66.366865 -0.636067 -2.040719 4.884341 -3.544317 2.257256 0.000001 -0.000000 -0.000000 0.000001 -0.000000 -0.000000 -49.470910 8.710437 -46.010914 64.779263 1.097341 2.170411 -5.468103 -26.410810 0.136357 -0.000001 0.000002 -0.000001 -0.000002 0.000002 0.000002 6.560324 0.064468 1.613711 13.119694 -0.540891 1.311529 13.119686 -0.540886 1.311529 -0.794363 -0.879175 -0.239073 -0.794354 -0.879175 -0.239068 -0.000001 0.000000 0.000000 -0.794353 -0.879144 -0.239082 -0.794407 -0.879137 -0.239087 -0.000003 0.000000 -0.000000 -0.000001 0.000000 0.000000 -3.556756 22.089602 12.533308 -44.698332 -26.850222 -41.221459 -7.080096 -106.236011 -6.800742 -63.298949 -17.184360 90.437462 19.050011 -20.381298 -10.821259 0.861541 4.878617 1.888919 0.000001 -0.000003 -0.000003 -4.341371 13.873377 -20.909000 7.643753 -3.576921 -45.811592 -0.000001 0.000001 0.000001 -2.479444 13.209002 -41.091309 -0.473958 -1.376488 -32.211698 -0.000002 0.000001 0.000002 2.322052 -0.806635 -42.231442 -8.724762 -2.996238 -36.967747 -0.000002 0.000001 -0.000001 -4.128237 -1.816595 -35.033358 -9.849638 -1.659204 -37.591865 0.000001 -0.000003 -0.000000 0.000000 0.000000 0.000000 0.000000 0.000000 0.000000 0.000000 0.000000 0.000000 0.000000 -0.000003 -0.000000 0.000000 -0.000003 -0.000000 0.000000 -0.000003 -0.000000 0.000000 -0.000003 -0.000000 13.926398 37.286682 -13.885645 -69.147626 50.438003 84.353458 -17.953811 94.203595 17.908788 -88.870842 1.844995 -17.239136 26.287708 17.405497 14.133662 12.756755 -27.483308 5.210970 0.000001 -0.000003 0.000001 -5.516905 -2.877872 5.901972 0.078652 -1.537043 25.883878 0.000002 -0.000000 -0.000001 -0.059430 -7.318089 5.602481 -0.613700 1.796480 32.233555 0.000000 0.000000 0.000002 -1.199163 -5.213755 6.409443 -0.155889 0.052170 18.320381 0.000002 -0.000001 -0.000003 2.900220 -7.925474 1.777034 -0.263231 1.466344 15.019706 0.000002 -0.000000 -0.000000 0.000000 0.000004 -0.000002 -0.000000 0.000004 -0.000002 0.000000 0.000004 -0.000001 -0.000001 0.000002 0.000003 -0.000001 0.000003 0.000003 -0.000001 0.000002 0.000003 -0.000001 0.000003 0.000003 0.000002 -0.000000 -0.000001 0.000002 -0.000000 -0.000001 0.000002 -0.000000 -0.000001 0.000002 -0.000000 -0.000001 0.000002 -0.000000 -0.000001 0.000002 -0.000000 -0.000001 0.000002 -0.000000 -0.000001 -0.000000 -0.000001 -0.000000 0.000000 0.000000 0.000000 
-56.016876 81.267052 -90.504318 -30.788222 99.816186 37.327940 0.000000 -0.000000 0.000000 -62.984562 1.498683 -10.643691 61.400785 -0.672103 -1.968714 12.553484 -5.391733 3.728568 0.000001 -0.000000 -0.000000 -0.000000 -0.000000 0.000001 -57.551393 2.332847 -41.753947 76.788975 0.763857 2.255364 -7.100417 -28.402235 -5.946524 -0.000000 0.000002 -0.000003 0.000001 0.000000 -0.000002 7.187779 0.192547 2.157768 14.377938 -0.517122 2.121624 14.377943 -0.517120 2.121622 -0.880599 -1.491772 -0.418997 -0.880598 -1.491792 -0.418990 0.000000 0.000000 -0.000000 -0.880663 -1.491752 -0.419000 -0.880510 -1.491848 -0.418979 -0.000003 -0.000001 -0.000001 0.000000 0.000000 0.000000 -1.260494 15.289571 10.040785 -46.281673 -22.213975 -31.035833 -6.294031 -108.302840 -5.978313 -70.647454 -16.689332 85.516072 19.050011 -20.381300 -10.821261 0.861539 4.878619 1.888921 -0.000000 0.000001 -0.000006 -4.341372 13.873374 -20.908999 7.643754 -3.576919 -45.811592 -0.000000 -0.000001 0.000001 -2.479444 13.209001 -41.091306 -0.473958 -1.376491 -32.211701 -0.000001 -0.000001 0.000002 2.322053 -0.806637 -42.231446 -8.724762 -2.996232 -36.967750 -0.000001 0.000001 0.000002 -4.128239 -1.816592 -35.033365 -9.849637 -1.659201 -37.591862 -0.000000 -0.000002 0.000002 -0.000000 -0.000003 -0.000000 -0.000000 -0.000003 -0.000000 -0.000000 -0.000003 -0.000000 0.000000 -0.000001 0.000000 0.000000 -0.000002 0.000000 0.000000 -0.000001 0.000000 0.000000 -0.000002 0.000000 13.564456 36.907719 -12.344226 -75.894064 50.093939 88.344877 -105.289026 91.273594 105.292933 -85.146907 0.326790 -13.114942 26.287691 17.405494 14.133674 12.756785 -27.483325 5.210987 0.000003 0.000000 0.000003 -5.516899 -2.877868 5.901966 0.078659 -1.537034 25.883861 -0.000000 0.000001 0.000000 -0.059428 -7.318079 5.602483 -0.613705 1.796474 32.233555 0.000001 0.000002 -0.000002 -1.199150 -5.213776 6.409460 -0.155896 0.052169 18.320381 0.000000 -0.000001 0.000001 2.900210 -7.925503 1.777028 -0.263227 1.466350 15.019690 -0.000001 0.000003 0.000002 0.000000 0.000001 -0.000000 0.000000 0.000001 0.000000 0.000000 0.000001 0.000000 0.000000 0.000006 0.000001 -0.000000 0.000007 0.000001 0.000000 0.000006 0.000001 -0.000000 0.000007 0.000001 -0.000001 0.000000 -0.000000 -0.000001 0.000000 -0.000000 -0.000001 0.000000 -0.000000 -0.000001 0.000000 -0.000000 -0.000001 0.000000 -0.000000 -0.000001 0.000000 -0.000000 -0.000001 0.000000 -0.000000 -0.000001 -0.000001 -0.000000 0.000000 -0.000000 0.000000 
-58.811337 82.153549 -93.925133 -29.953176 102.542907 34.979028 0.000000 0.000000 0.000000 -62.915447 4.267496 -11.660156 55.219385 -0.431802 -1.813475 18.232840 -8.185545 7.671920 0.000001 -0.000001 -0.000000 0.000000 -0.000000 0.000000 -63.527105 -5.848660 -39.536980 88.235683 1.560968 2.377107 -10.171418 -30.299163 -6.762926 -0.000000 -0.000000 -0.000002 -0.000003 -0.000001 0.000000 7.649952 0.380775 2.491252 15.306729 -0.461772 2.488196 15.306725 -0.461774 2.488197 -0.938737 -2.101942 -0.578355 -0.938736 -2.101958 -0.578344 -0.000000 0.000000 -0.000000 -0.938801 -2.101907 -0.578376 -0.938564 -2.101943 -0.578346 -0.000001 0.000000 -0.000000 -0.000000 0.000000 -0.000000 0.133121 10.404968 8.550112 -47.972756 -19.620359 -25.331618 -5.510235 -110.591090 -5.160511 -78.014318 -17.894913 78.947302 19.050014 -20.381293 -10.821262 0.861542 4.878615 1.888924 0.000002 -0.000002 -0.000003 -4.341372 13.873376 -20.909002 7.643753 -3.576920 -45.811588 -0.000000 -0.000000 -0.000000 -2.479446 13.209001 -41.091306 -0.473958 -1.376489 -32.211695 -0.000001 -0.000001 0.000002 2.322052 -0.806633 -42.231442 -8.724764 -2.996230 -36.967750 -0.000002 -0.000001 -0.000001 -4.128238 -1.816591 -35.033365 -9.849634 -1.659194 -37.591862 0.000001 -0.000005 0.000001 -0.000000 0.000003 -0.000000 -0.000000 0.000003 -0.000000 -0.000000 0.000003 -0.000000 0.000000 0.000001 0.000000 0.000000 0.000000 0.000000 0.000000 0.000001 0.000000 0.000000 -0.000000 0.000000 13.331880 36.459608 -11.638685 -78.036045 49.728374 89.494705 -137.006860 91.721750 137.020083 -81.523765 0.169059 -12.020883 26.287699 17.405484 14.133684 12.756763 -27.483320 5.210971 -0.000001 -0.000002 -0.000001 -5.516895 -2.877876 5.901989 0.078655 -1.537028 25.883856 -0.000002 0.000000 0.000001 -0.059424 -7.318095 5.602505 -0.613704 1.796472 32.233531 0.000003 0.000001 0.000002 -1.199157 -5.213777 6.409455 -0.155892 0.052166 18.320400 -0.000000 -0.000003 -0.000002 2.900216 -7.925492 1.777045 -0.263227 1.466357 15.019726 0.000000 -0.000000 -0.000001 0.000000 0.000001 0.000000 0.000000 -0.000003 0.000001 0.000000 0.000001 -0.000000 -0.000000 0.000002 -0.000001 -0.000000 0.000003 -0.000000 -0.000000 0.000002 -0.000001 -0.000000 0.000003 0.000000 0.000000 -0.000001 0.000001 0.000000 -0.000001 0.000001 0.000000 -0.000001 0.000001 0.000000 -0.000001 0.000001 0.000000 -0.000001 0.000001 0.000000 -0.000001 0.000001 0.000000 -0.000001 0.000001 -0.000000 0.000000 0.000000 0.000000 0.000000 0.000000 
-61.268772 82.856110 -97.144043 -31.803256 104.275795 36.352586 -0.000001 0.000001 0.000000 -61.583629 9.716513 -11.523917 48.218711 -0.435709 -1.646839 25.218136 -13.001377 10.979180 0.000000 -0.000001 0.000000 0.000000 0.000000 -0.000001 -67.780318 -13.735072 -38.247205 96.022003 3.017428 2.523966 -9.823475 -29.417410 -5.450010 0.000002 -0.000003 0.000002 0.000005 -0.000001 0.000000 7.958580 0.681468 2.627087 15.931935 -0.365130 2.458656 15.931930 -0.365136 2.458654 -0.966667 -2.638099 -0.699276 -0.966663 -2.638126 -0.699267 -0.000001 -0.000000 -0.000000 -0.966674 -2.638060 -0.699286 -0.966581 -2.638161 -0.699256 -0.000001 0.000000 -0.000000 -0.000001 -0.000000 -0.000000 0.648664 9.253309 9.025468 -49.686481 -17.379220 -26.157926 -4.836091 -113.273968 -4.444550 -80.944831 -18.281882 76.034861 19.050016 -20.381298 -10.821255 0.861542 4.878618 1.888923 0.000000 -0.000000 -0.000003 -4.341368 13.873377 -20.909000 7.643754 -3.576920 -45.811592 0.000001 0.000000 -0.000000 -2.479444 13.209000 -41.091306 -0.473957 -1.376489 -32.211691 -0.000000 0.000001 -0.000000 2.322054 -0.806633 -42.231442 -8.724763 -2.996231 -36.967750 0.000001 -0.000002 -0.000003 -4.128237 -1.816591 -35.033365 -9.849639 -1.659201 -37.591862 -0.000000 0.000000 -0.000001 -0.000000 0.000004 0.000001 -0.000000 0.000004 0.000001 -0.000000 0.000005 0.000001 -0.000000 -0.000003 0.000000 -0.000000 -0.000003 0.000001 -0.000000 -0.000003 0.000000 -0.000000 -0.000003 0.000000 13.357144 35.907790 -12.547606 -77.549346 49.082136 89.659839 -55.970798 91.361116 55.963517 -78.370998 0.035961 -14.317863 26.287696 17.405496 14.133686 12.756768 -27.483300 5.210980 0.000002 -0.000006 -0.000001 -5.516906 -2.877855 5.901978 0.078655 -1.537030 25.883859 -0.000000 0.000000 0.000002 -0.059429 -7.318054 5.602499 -0.613693 1.796473 32.233538 0.000002 0.000003 -0.000000 -1.199157 -5.213760 6.409461 -0.155887 0.052169 18.320398 -0.000000 -0.000001 -0.000001 2.900213 -7.925471 1.777045 -0.263228 1.466358 15.019695 0.000001 0.000003 -0.000002 -0.000000 -0.000002 0.000001 0.000000 -0.000004 0.000001 -0.000000 -0.000002 0.000001 -0.000000 -0.000003 0.000000 -0.000000 -0.000002 0.000000 -0.000000 -0.000003 0.000000 -0.000000 -0.000002 0.000000 -0.000001 0.000001 -0.000001 -0.000001 0.000001 -0.000001 -0.000001 0.000001 -0.000001 -0.000001 0.000001 -0.000001 -0.000001 0.000001 -0.000001 -0.000001 0.000001 -0.000001 -0.000001 0.000001 -0.000001 0.000001 -0.000001 0.000000 -0.000001 0.000001 0.000000 
